<svg xmlns="http://www.w3.org/2000/svg" width="19" height="25" viewBox="0 0 19 25">
  <path id="_Icon_Сolor" data-name="🎨 Icon Сolor" d="M15.965,25H3.034A3.084,3.084,0,0,1,0,21.875V3.125A3.084,3.084,0,0,1,3.034,0h8.313a1.165,1.165,0,0,1,.88.41l6.465,7.5A1.291,1.291,0,0,1,19,8.75V21.875A3.085,3.085,0,0,1,15.965,25ZM3.034,2.5a.644.644,0,0,0-.659.626V21.875a.644.644,0,0,0,.659.626H15.965a.644.644,0,0,0,.66-.626V10h-3.9A3.409,3.409,0,0,1,9.5,6.437V2.5Zm8.841,1.223V6.437A.975.975,0,0,0,12.722,7.5h2.409ZM9.5,18.751A1.222,1.222,0,0,1,8.312,17.5V16.25H7.124a1.252,1.252,0,0,1,0-2.5H8.312V12.5a1.189,1.189,0,1,1,2.376,0v1.25h1.187a1.252,1.252,0,0,1,0,2.5H10.687V17.5A1.221,1.221,0,0,1,9.5,18.751Z" fill="#222b45"/>
</svg>
