<svg xmlns="http://www.w3.org/2000/svg" xmlns:xlink="http://www.w3.org/1999/xlink" width="40" height="50" viewBox="0 0 40 50">
  <defs>
    <clipPath id="clip-path">
      <path id="_Icon_小olor" data-name=" Icon 小olor" d="M33.61,50H6.388A6.327,6.327,0,0,1,0,43.749V6.251A6.327,6.327,0,0,1,6.388,0h17.5A2.508,2.508,0,0,1,25.74.819l13.61,15A2.507,2.507,0,0,1,40,17.5V43.749A6.329,6.329,0,0,1,33.61,50ZM6.388,5A1.327,1.327,0,0,0,5,6.251v37.5A1.327,1.327,0,0,0,6.388,45H33.61A1.328,1.328,0,0,0,35,43.749V20H26.784A6.969,6.969,0,0,1,20,12.875V5ZM25,7.445v5.429A1.98,1.98,0,0,0,26.784,15h5.071ZM27.5,40h-15a2.5,2.5,0,0,1,0-5h15a2.5,2.5,0,0,1,0,5ZM20,30H12.5a2.5,2.5,0,0,1,0-5H20a2.5,2.5,0,0,1,0,5Z" transform="translate(0 0)" fill="#0095ff"/>
    </clipPath>
  </defs>
  <g id="file-icon" transform="translate(-4 -2)">
    <path id="_Icon_小olor-2" data-name=" Icon 小olor" d="M33.61,50H6.388A6.327,6.327,0,0,1,0,43.749V6.251A6.327,6.327,0,0,1,6.388,0h17.5A2.508,2.508,0,0,1,25.74.819l13.61,15A2.507,2.507,0,0,1,40,17.5V43.749A6.329,6.329,0,0,1,33.61,50ZM6.388,5A1.327,1.327,0,0,0,5,6.251v37.5A1.327,1.327,0,0,0,6.388,45H33.61A1.328,1.328,0,0,0,35,43.749V20H26.784A6.969,6.969,0,0,1,20,12.875V5ZM25,7.445v5.429A1.98,1.98,0,0,0,26.784,15h5.071ZM27.5,40h-15a2.5,2.5,0,0,1,0-5h15a2.5,2.5,0,0,1,0,5ZM20,30H12.5a2.5,2.5,0,0,1,0-5H20a2.5,2.5,0,0,1,0,5Z" transform="translate(4 2)" fill="#0095ff"/>
  </g>
</svg>
