<svg xmlns="http://www.w3.org/2000/svg" xmlns:xlink="http://www.w3.org/1999/xlink" width="411.952" height="202.988" viewBox="0 0 411.952 202.988">
  <defs>
    <filter id="Path_2035" x="0" y="42.351" width="411.952" height="118.904" filterUnits="userSpaceOnUse">
      <feOffset dy="3" input="SourceAlpha"/>
      <feGaussianBlur stdDeviation="5" result="blur"/>
      <feFlood flood-opacity="0.161"/>
      <feComposite operator="in" in2="blur"/>
      <feComposite in="SourceGraphic"/>
    </filter>
  </defs>
  <g id="logo" transform="translate(-76.48 -49.82)">
    <g id="rc_logo" transform="translate(92.01 50.319)">
      <g transform="matrix(1, 0, 0, 1, -15.53, -0.5)" filter="url(#Path_2035)">
        <path id="Path_2035-2" data-name="Path 2035" d="M521.695,419.614c.164-.013.287-.022.358-.022.823,0,3.027.916.3,8.152s-10.394,32.795-11.613,40.987-.236,14.474,11.194,0c4.208-5.329,8.305-10.838,11.9-15.794,5.266-28.089,21.99-38.585,33.314-39.083,11.826-.518,16.708,4.026,17.744,8.329s-1.478,7.016-4.208,8.352c-3.334,1.632-6.992,1.2-4.91-.924,4.6-4.7,1.736-7.651.086-8.014-2.885-.634-5.164.183-9.086,6.586s-5.864,14.9-8.325,30.723,17.1,8.968,26.866-.092c9.279-8.606,7.972-7.288,10.716-9.666.147-.128.293-.257.441-.383l.03-.027h0c14.045-11.844,31.812-5.064,51.134,2.312,18.587,7.094,38.665,14.758,57.646,6.2a1.315,1.315,0,0,1,1.08,2.4c-19.981,9.005-40.587,1.141-59.663-6.141-18.327-6.995-35.2-13.432-48.052-3.13-22.031,22.366-39.121,28-38.213,27.668,0,0-30.054,9.181-27.492-19.03-4.911,6.754-10.571,13.769-15.865,18.473-11.466,10.189-27.173,5.956-29.715,1.844s-1.656-14.646,3.539-29.565c1.225-3.517,7.773-17.085,13.739-24.469a59.34,59.34,0,0,1-12.863.436c-.956,1.073-1.991,2.326-3.119,3.7-8.768,10.641-22.619,27.449-56.656,28.591-17.675.593-31.091-2.435-43.176-5.163-19.655-4.436-35.725-8.063-60.811,6.516-.791.46-1.579.377-1.759-.185s.315-1.391,1.107-1.852c26.434-15.362,43-11.624,63.257-7.051,11.958,2.7,25.231,5.7,42.606,5.112,32.159-1.079,45.128-16.817,53.337-26.781.984-1.195,1.907-2.315,2.8-3.336l-.1-.028c-6.82-1.969-6.4-8.731-4.922-14.713s2.668-7.736,6.979-11.987,10.666-2.129,13.427-2.469,7.334,2.538,4.363,12.612a19.168,19.168,0,0,1-7.367,10.909c5.466.814,17.711.138,19.956,0Zm-23.333-1.285c5.722-4.358,8.792-10.331,6.472-15.845C502.919,397.932,492.3,413.817,498.362,418.329Z" transform="translate(-310.69 -341.06)" fill="#a20eac" stroke="rgba(0,0,0,0)" stroke-width="1" fill-rule="evenodd"/>
      </g>
      <path id="Subtraction_1" data-name="Subtraction 1" d="M187.047,201.988h0a2.13,2.13,0,0,1-1.516-.63,1.892,1.892,0,0,1,.009-2.666,2.145,2.145,0,0,1,1.517-.62,2.024,2.024,0,0,1,2.067,1.96,1.881,1.881,0,0,1-.561,1.339A2.147,2.147,0,0,1,187.047,201.988Zm-23.491-5.265h0a.942.942,0,0,1-.966-.92.875.875,0,0,1,.256-.627.967.967,0,0,1,.694-.282h.021a.948.948,0,0,1,.971.915A.966.966,0,0,1,163.556,196.723Zm35.48-4.136h-.021a2.108,2.108,0,0,1-1.505-.613,1.891,1.891,0,0,1-.561-1.346,2.079,2.079,0,1,1,2.088,1.959ZM17.216,187.746a7.823,7.823,0,0,1-1.366-.15,5.575,5.575,0,0,1-1.26-.414,6.976,6.976,0,0,1-.994-.55,6.8,6.8,0,0,1-.938-.774l-.025-.029a6.88,6.88,0,0,1-.784-.946,7.878,7.878,0,0,1-.578-1.063l-.016-.055a6.069,6.069,0,0,1-.362-1.206,5.98,5.98,0,0,1-.132-1.274l-.025-14.552v-.614c-.078-41.958-.26-140.216.52-149.6H11.2a6.583,6.583,0,0,1,.134-1.274,6.706,6.706,0,0,1,.378-1.234l.021-.053a6.633,6.633,0,0,1,.6-1.074,7.444,7.444,0,0,1,.778-.941l.052-.047a7.516,7.516,0,0,1,.946-.765,6.915,6.915,0,0,1,1.076-.592l.065-.023a6.847,6.847,0,0,1,1.224-.38,7.39,7.39,0,0,1,1.274-.113l.023,0c12.034.081,24.19.227,35.945.369h.033l6.352.079c1.563-.008,3.176-.012,4.8-.012,11.075,0,22.438.192,32.463.362l3.062.048c7.485.119,15.225.241,22.848.286,2.594.014,26.621.706,43.034,1.486a101.408,101.408,0,0,1,14.679,1.444l.281.005.046.062c1.927.455,2.9.979,2.9,1.555a1.549,1.549,0,0,1-.849,1.449,4.372,4.372,0,0,1-2.068.4c1.139,24.724,2.089,51.507,2.9,81.878.718,26.579,1.257,53.022,1.838,82.355a3.5,3.5,0,0,1-.064.78,5.16,5.16,0,0,1-.333,1.005l-.121.23a2.991,2.991,0,0,1-.9,1.12l-.076.051a2.624,2.624,0,0,1-1.191.694l-.575.173a3.318,3.318,0,0,1-.805.089c-26.728.482-54.441.881-82.367,1.184-26.169.281-53.84.491-82.243.625C17.309,187.745,17.264,187.746,17.216,187.746ZM16.331,15.564h0l-.239.662-.041.347c-.065,5.677-.183,11.165-.319,17.237L15.69,35.9c-.184,9.016-.374,18.34-.335,27.485.359,27.7.018,55.907-.311,83.183l-.011.893-.2,19.159-.1,14.547.024.218a3.131,3.131,0,0,1,0,.366.612.612,0,0,0,.005.2l.337.574a.478.478,0,0,1,.049.185.133.133,0,0,0,.054.119l.522.407a.457.457,0,0,1,.091.141c.023.05.039.087.1.1a5.564,5.564,0,0,1,.692.21l.106.037.509.058h.963c10.993,0,71.787-.35,116.661-.89,14.413-.173,26.906-.247,35.173-.3h.069c3.473-.021,6.216-.037,8.014-.054l2.458-.061.51-.666.821-.034c-.1-8.774-.4-17.8-.684-26.532l-.01-.306-.054-1.647v-.013c-.212-6.465-.432-13.15-.551-19.787-.146-7.24-.484-14.674-.81-21.864l-.025-.545-.03-.654c-.346-7.645-.7-15.55-.832-23.437l-.161-10.145c-.209-12.447-.426-25.318-.39-37.558-.015-6.029-.216-12.263-.41-18.293l-.008-.261-.124-3.5.759-.047.019-.447a21.407,21.407,0,0,1-5.381.976h-.022a14.637,14.637,0,0,1-1.892-.1,2.882,2.882,0,0,1-1.737-.724c-2.246-.366-8.9-.663-14.081-.847-7.093-.258-16.363-.479-28.339-.675l1.166.311c-2.709.027-5.473.068-8.145.107h-.031c-4.8.07-9.766.143-14.626.143h-1.135c-.817.024-1.395.028-1.736.028-.313,0-.469,0-.47,0l0-.357a23.6,23.6,0,0,1-4.9.4c-2.029,0-4.412-.128-7.084-.379l-3.964-.027-6.967-.2c-1.165,1.089-6.121,1.252-8.971,1.252-.76,0-1.374-.011-1.668-.016a9.525,9.525,0,0,1-1.092-.092l-.162-.02a7.09,7.09,0,0,1-2.3-1.079l-2.85-.137c-1.131,1-4.111,1.185-5.384,1.263l-.074,0-.3.024A7.409,7.409,0,0,1,55,16.706a34.189,34.189,0,0,1-5.039-.534l-.048-.008-.059-.016c-6.732-.88-16.866-1.016-25.009-1.125l-7.36-.118.008.027-.013-.023.013.024a.2.2,0,0,1-.048.008.04.04,0,0,1-.03-.009.033.033,0,0,1-.007-.025l-.512.254h-.009c-.022,0-.031-.017-.04-.036l0-.006c-.006-.016-.011-.03-.022-.03s-.026.014-.048.042L16.4,15.6c-.011.014-.021.022-.031.022s-.035-.046-.039-.061ZM201.07,180.5a.916.916,0,1,1,0-1.83,1,1,0,0,1,.713.295.868.868,0,0,1,.255.626.941.941,0,0,1-.971.909Zm-9.536-6.073h0a.978.978,0,0,1-.7-.286.874.874,0,0,1-.258-.624.848.848,0,0,1,.248-.613,1.02,1.02,0,0,1,1.426,0,.878.878,0,0,1,0,1.236A1.01,1.01,0,0,1,191.534,174.425Zm7.083-14.14a2.15,2.15,0,0,1-1.511-.626,1.874,1.874,0,0,1-.555-1.334,2.015,2.015,0,0,1,2.066-1.947h.02a1.957,1.957,0,1,1-.019,3.907Zm-6.152-28.357h0a.916.916,0,1,1,.97-.908A.948.948,0,0,1,192.461,131.927ZM5.527,43.67a2.153,2.153,0,0,1-1.35-.488,2.13,2.13,0,0,1-.791-1.423,1.874,1.874,0,0,1,.4-1.395,1.921,1.921,0,0,1,1.5-.7,2.172,2.172,0,0,1,2.132,1.917,1.886,1.886,0,0,1-1.9,2.09ZM2.155,28.83A2.179,2.179,0,0,1,.8,28.345a2.145,2.145,0,0,1-.787-1.432,1.876,1.876,0,0,1,.405-1.39,1.909,1.909,0,0,1,1.494-.694,2.144,2.144,0,0,1,1.342.48,2.032,2.032,0,0,1,.4,2.829A1.909,1.909,0,0,1,2.155,28.83Zm16.536-9.638a1.013,1.013,0,0,1-.623-.22.954.954,0,0,1-.188-1.327.9.9,0,0,1,.7-.323,1.018,1.018,0,0,1,1,.867.874.874,0,0,1-.188.677A.9.9,0,0,1,18.691,19.193Zm-11.227-1.3a.985.985,0,0,1-.618-.222.953.953,0,0,1-.189-1.328.891.891,0,0,1,.7-.321,1.032,1.032,0,0,1,.635.224,1,1,0,0,1,.367.669.874.874,0,0,1-.187.648A.9.9,0,0,1,7.464,17.891ZM2.3,9.39a1.024,1.024,0,0,1-.633-.222A1,1,0,0,1,1.3,8.5a.881.881,0,0,1,.884-.979,1,1,0,0,1,.627.225A.946.946,0,0,1,3,9.069.891.891,0,0,1,2.3,9.39ZM182,7.482a2.147,2.147,0,0,1-1.514-.622,1.875,1.875,0,0,1,0-2.669,2.1,2.1,0,0,1,1.5-.611h.023a2.022,2.022,0,0,1,2.071,1.956A2.037,2.037,0,0,1,182,7.482Zm-6.493-2.328a1,1,0,0,1-.7-.291.881.881,0,0,1-.262-.629.948.948,0,0,1,.97-.91,1.013,1.013,0,0,1,.713.294.873.873,0,0,1,.259.622A.952.952,0,0,1,175.511,5.153ZM22.83,4a2.164,2.164,0,0,1-1.344-.478,2.121,2.121,0,0,1-.79-1.432A1.886,1.886,0,0,1,22.589,0,2.154,2.154,0,0,1,23.94.488a2.129,2.129,0,0,1,.79,1.423,1.875,1.875,0,0,1-.4,1.4A1.913,1.913,0,0,1,22.83,4Z" transform="translate(99.244 0)" fill="#a20eac" stroke="rgba(0,0,0,0)" stroke-width="1"/>
    </g>
  </g>
</svg>
