<svg xmlns="http://www.w3.org/2000/svg" xmlns:xlink="http://www.w3.org/1999/xlink" width="411.952" height="232.987" viewBox="0 0 411.952 232.987">
  <defs>
    <filter id="Path_2035" x="0" y="54.351" width="411.952" height="118.904" filterUnits="userSpaceOnUse">
      <feOffset dy="3" input="SourceAlpha"/>
      <feGaussianBlur stdDeviation="5" result="blur"/>
      <feFlood flood-opacity="0.161"/>
      <feComposite operator="in" in2="blur"/>
      <feComposite in="SourceGraphic"/>
    </filter>
    <filter id="Subtraction_1" x="99.272" y="0" width="233.043" height="232.987" filterUnits="userSpaceOnUse">
      <feOffset dy="3" input="SourceAlpha"/>
      <feGaussianBlur stdDeviation="5" result="blur-2"/>
      <feFlood flood-opacity="0.161"/>
      <feComposite operator="in" in2="blur-2"/>
      <feComposite in="SourceGraphic"/>
    </filter>
  </defs>
  <g id="upload-logo" transform="translate(15.53 12.5)">
    <g transform="matrix(1, 0, 0, 1, -15.53, -12.5)" filter="url(#Path_2035)">
      <path id="Path_2035-2" data-name="Path 2035" d="M521.695,419.614c.164-.013.287-.022.358-.022.823,0,3.027.916.3,8.152s-10.394,32.795-11.613,40.987-.236,14.474,11.194,0c4.208-5.329,8.305-10.838,11.9-15.794,5.266-28.089,21.99-38.585,33.314-39.083,11.826-.518,16.708,4.026,17.744,8.329s-1.478,7.016-4.208,8.352c-3.334,1.632-6.992,1.2-4.91-.924,4.6-4.7,1.736-7.651.086-8.014-2.885-.634-5.164.183-9.086,6.586s-5.864,14.9-8.325,30.723,17.1,8.968,26.866-.092c9.279-8.606,7.972-7.288,10.716-9.666.147-.128.293-.257.441-.383l.03-.027h0c14.045-11.844,31.812-5.064,51.134,2.312,18.587,7.094,38.665,14.758,57.646,6.2a1.315,1.315,0,0,1,1.08,2.4c-19.981,9.005-40.587,1.141-59.663-6.141-18.327-6.995-35.2-13.432-48.052-3.13-22.031,22.366-39.121,28-38.213,27.668,0,0-30.054,9.181-27.492-19.03-4.911,6.754-10.571,13.769-15.865,18.473-11.466,10.189-27.173,5.956-29.715,1.844s-1.656-14.646,3.539-29.565c1.225-3.517,7.773-17.085,13.739-24.469a59.34,59.34,0,0,1-12.863.436c-.956,1.073-1.991,2.326-3.119,3.7-8.768,10.641-22.619,27.449-56.656,28.591-17.675.593-31.091-2.435-43.176-5.163-19.655-4.436-35.725-8.063-60.811,6.516-.791.46-1.579.377-1.759-.185s.315-1.391,1.107-1.852c26.434-15.362,43-11.624,63.257-7.051,11.958,2.7,25.231,5.7,42.606,5.112,32.159-1.079,45.128-16.817,53.337-26.781.984-1.195,1.907-2.315,2.8-3.336l-.1-.028c-6.82-1.969-6.4-8.731-4.922-14.713s2.668-7.736,6.979-11.987,10.666-2.129,13.427-2.469,7.334,2.538,4.363,12.612a19.168,19.168,0,0,1-7.367,10.909c5.466.814,17.711.138,19.956,0Zm-23.333-1.285c5.722-4.358,8.792-10.331,6.472-15.845C502.919,397.932,492.3,413.817,498.362,418.329Z" transform="translate(-310.69 -329.06)" fill="#a20eac" stroke="rgba(0,0,0,0)" stroke-width="1" fill-rule="evenodd"/>
    </g>
    <g transform="matrix(1, 0, 0, 1, -15.53, -12.5)" filter="url(#Subtraction_1)">
      <path id="Subtraction_1-2" data-name="Subtraction 1" d="M187.05,201.987h-.005a2.143,2.143,0,0,1-1.468-.581,1.893,1.893,0,0,1-.04-2.714,2.147,2.147,0,0,1,1.518-.621,2.025,2.025,0,0,1,2.067,1.961,1.882,1.882,0,0,1-.561,1.339A2.143,2.143,0,0,1,187.05,201.987Zm11.987-9.4h-.021a2.123,2.123,0,0,1-1.464-.574,1.891,1.891,0,0,1-.6-1.387,2.08,2.08,0,1,1,2.087,1.961ZM17.214,187.747a7.8,7.8,0,0,1-1.365-.151,5.334,5.334,0,0,1-1.258-.415,6.725,6.725,0,0,1-1-.55,6.8,6.8,0,0,1-.935-.772l-.026-.029a6.849,6.849,0,0,1-.782-.946,7.757,7.757,0,0,1-.579-1.062l-.016-.056a6.146,6.146,0,0,1-.362-1.205,6.076,6.076,0,0,1-.132-1.276l-.026-14.55v-.465c-.078-42-.26-140.356.521-149.749H11.2a6.707,6.707,0,0,1,.132-1.274,6.92,6.92,0,0,1,.378-1.234l.021-.053a6.885,6.885,0,0,1,.6-1.076,7.3,7.3,0,0,1,.78-.941l.05-.048a7.69,7.69,0,0,1,.946-.764,6.848,6.848,0,0,1,1.078-.592l.063-.024a7.061,7.061,0,0,1,1.224-.381,7.524,7.524,0,0,1,1.274-.114l.024,0c11.589.079,23.151.214,35.98.37l6.35.079c1.576-.008,3.21-.013,4.856-.013,10.974,0,21.869.184,32.405.361l3.465.055c7.354.117,14.958.237,22.443.281,2.545.011,26.485.7,43.033,1.485a101.088,101.088,0,0,1,14.677,1.443l.283.005.045.063c1.926.454,2.9.978,2.9,1.554,0,1.212-1.009,1.852-2.917,1.852,1.139,24.753,2.087,51.537,2.9,81.88.722,26.781,1.259,53.142,1.837,82.355a3.457,3.457,0,0,1-.063.78,5.085,5.085,0,0,1-.333,1l-.122.23a2.993,2.993,0,0,1-.9,1.12l-.077.05a2.622,2.622,0,0,1-1.192.7l-.573.172a3.24,3.24,0,0,1-.806.09q-4.065.074-8.131.144v-3.5c1.632-.01,3.107-.02,4.27-.031l2.458-.063.51-.666.819-.032c-.1-8.656-.389-17.561-.67-26.172l-.022-.669-.029-.887c-.222-6.718-.452-13.662-.576-20.558-.147-7.246-.486-14.686-.814-21.881l-.024-.528-.033-.738c-.343-7.622-.7-15.5-.826-23.352l-.161-10.145c-.211-12.468-.428-25.361-.391-37.56-.016-6.142-.22-12.447-.417-18.545L177.8,17.24l.758-.048.018-.447a21.052,21.052,0,0,1-5.376.975h-.026a15.023,15.023,0,0,1-1.892-.1,2.883,2.883,0,0,1-1.736-.724c-2.251-.367-8.9-.664-14.083-.848-7.03-.255-16.3-.476-28.337-.674l1.163.309c-2.678.028-5.4.067-8.029.106-4.856.071-9.872.144-14.782.144h-1.124c-.834.025-1.421.03-1.767.03-.294,0-.437,0-.44,0l0-.359a23.546,23.546,0,0,1-4.905.4c-2.027,0-4.41-.127-7.082-.378l-3.964-.029-6.966-.2c-1.165,1.088-6.118,1.251-8.967,1.251-.764,0-1.378-.011-1.672-.017a9.749,9.749,0,0,1-1.123-.095l-.132-.016a7.137,7.137,0,0,1-2.3-1.078L62.185,15.3c-1.136,1.006-4.126,1.186-5.4,1.263l-.054,0-.3.026a7.419,7.419,0,0,1-1.427.114,33.823,33.823,0,0,1-5.026-.531l-.067-.011-.058-.016c-6.712-.878-16.433-1.009-25.01-1.126l-7.36-.119.008.026-.025.007-.025,0a.038.038,0,0,1-.03-.01.03.03,0,0,1-.005-.025l-.513.254h0a.046.046,0,0,1-.047-.034c-.009-.022-.015-.037-.026-.037s-.027.014-.048.042L16.4,15.6c-.011.014-.021.021-.03.021s-.033-.031-.039-.061l-.24.661-.04.346c-.067,5.613-.184,11.128-.32,17.238l-.04,1.954c-.186,9.062-.377,18.433-.338,27.622.359,27.775.017,56.052-.314,83.4l-.008.678-.2,19.159-.1,14.548.024.217a2.989,2.989,0,0,1,0,.367.589.589,0,0,0,.005.2l.336.573a.479.479,0,0,1,.049.185c0,.051.008.088.054.119l.521.407a.475.475,0,0,1,.092.142c.023.05.04.087.1.1a5.308,5.308,0,0,1,.716.217l.08.028.51.058h.9c1.314,0,3.32-.005,5.962-.015v3.939l-5.331.027-1.4.007C17.309,187.746,17.263,187.747,17.214,187.747ZM201.069,180.5h0a.916.916,0,1,1,.005-1.829,1,1,0,0,1,.711.293.87.87,0,0,1,.256.626A.939.939,0,0,1,201.069,180.5Zm-9.537-6.073a.974.974,0,0,1-.7-.286.872.872,0,0,1-.257-.625.843.843,0,0,1,.245-.61,1.021,1.021,0,0,1,1.427-.005.88.88,0,0,1,0,1.237A1.011,1.011,0,0,1,191.532,174.424Zm7.085-14.141a2.151,2.151,0,0,1-1.513-.627,1.869,1.869,0,0,1-.553-1.332,2.014,2.014,0,0,1,2.064-1.948h.021a1.957,1.957,0,1,1-.018,3.906Zm-6.157-28.356h0a.916.916,0,1,1,.973-.909A.948.948,0,0,1,192.459,131.928ZM5.526,43.67a2.153,2.153,0,0,1-1.349-.487,2.132,2.132,0,0,1-.79-1.424,1.874,1.874,0,0,1,.4-1.393,1.918,1.918,0,0,1,1.5-.7,2.14,2.14,0,0,1,1.341.484,2.017,2.017,0,0,1,.386,2.82A1.891,1.891,0,0,1,5.526,43.67ZM2.154,28.831A2.18,2.18,0,0,1,.8,28.344a2.142,2.142,0,0,1-.785-1.427,1.884,1.884,0,0,1,.4-1.4A1.909,1.909,0,0,1,1.91,24.83a2.148,2.148,0,0,1,1.342.479,2.034,2.034,0,0,1,.4,2.83A1.912,1.912,0,0,1,2.154,28.831ZM18.69,19.192a1.012,1.012,0,0,1-.621-.218.954.954,0,0,1-.19-1.327.9.9,0,0,1,.7-.324,1.02,1.02,0,0,1,1,.9.873.873,0,0,1-.192.646A.9.9,0,0,1,18.69,19.192Zm-11.226-1.3a.988.988,0,0,1-.618-.221.958.958,0,0,1-.19-1.329.891.891,0,0,1,.7-.321,1.036,1.036,0,0,1,.636.223,1,1,0,0,1,.362.64.873.873,0,0,1-.183.678A.9.9,0,0,1,7.463,17.891ZM2.3,9.39a1.021,1.021,0,0,1-.633-.223A1,1,0,0,1,1.3,8.5a.881.881,0,0,1,.883-.98,1,1,0,0,1,.627.224A.943.943,0,0,1,3,9.069.887.887,0,0,1,2.3,9.39ZM182,7.481a2.141,2.141,0,0,1-1.513-.62,1.878,1.878,0,0,1,0-2.67,2.1,2.1,0,0,1,1.5-.61h.026a2.017,2.017,0,0,1,2.069,1.956A2.034,2.034,0,0,1,182,7.481Zm-6.49-2.328a1,1,0,0,1-.707-.291.877.877,0,0,1-.26-.629.947.947,0,0,1,.972-.909,1,1,0,0,1,.707.291.879.879,0,0,1,.263.626A.949.949,0,0,1,175.512,5.153ZM22.831,4a2.162,2.162,0,0,1-1.345-.479A2.115,2.115,0,0,1,20.7,2.094,1.888,1.888,0,0,1,22.588,0a2.158,2.158,0,0,1,1.352.488,2.126,2.126,0,0,1,.79,1.421,1.875,1.875,0,0,1-.4,1.4A1.914,1.914,0,0,1,22.831,4Z" transform="translate(114.77 12.5)" fill="#a20eac" stroke="rgba(0,0,0,0)" stroke-width="1"/>
    </g>
  </g>
</svg>
