<svg xmlns="http://www.w3.org/2000/svg" xmlns:xlink="http://www.w3.org/1999/xlink" width="16" height="16" viewBox="0 0 16 16">
  <defs>
    <clipPath id="clip-path">
      <rect width="16" height="15.999" fill="none"/>
    </clipPath>
  </defs>
  <g id="Icon_Add_User" data-name="Icon Add User" clip-path="url(#clip-path)">
    <path id="icon_add-user" d="M-218-1589v-2h-2v-2h2v-2h2v2h2v2h-2v2Zm-12,0v-1a4.951,4.951,0,0,1,5-5h3v2h-3a2.913,2.913,0,0,0-2.8,2h5.8v2Zm3-11v-1a4.012,4.012,0,0,1,4-4,4.012,4.012,0,0,1,4,4v1a4.012,4.012,0,0,1-4,4A4.012,4.012,0,0,1-227-1600Zm2-1v1a2.006,2.006,0,0,0,2,2,2.006,2.006,0,0,0,2-2v-1a2.006,2.006,0,0,0-2-2A2.006,2.006,0,0,0-225-1601Z" transform="translate(230 1605)" fill="#fff"/>
  </g>
</svg>
